<svg
  data-v-fde0c5aa=""
  xmlns="http://www.w3.org/2000/svg"
  viewBox="0 0 300 300"
  class="iconLeftSlogan"
>
  <!---->
  <defs data-v-fde0c5aa="">
    <!---->
  </defs>
  <rect
    data-v-fde0c5aa=""
    fill="transparent"
    x="0"
    y="0"
    width="300px"
    height="300px"
    class="logo-background-square"
  ></rect>
  <defs data-v-fde0c5aa="">
    <!---->
  </defs>
  <g
    data-v-fde0c5aa=""
    id="19794231-c060-4dc1-9158-d9e5fe0572fb"
    fill="#000000"
    transform="matrix(1.367647041399349,0,0,1.367647041399349,113.30617280931682,128.66220575289853)"
  >
    <path
      d="M5.34 3.82L1.17 3.82L1.17 13.15L2.65 13.15L2.65 9.45L5.34 9.44C6.83 9.44 8.33 8.44 8.33 6.64C8.33 4.81 6.83 3.82 5.34 3.82ZM4.78 8.30L2.65 8.27L2.65 5.00L4.78 4.97C6.10 4.97 6.78 5.59 6.78 6.64C6.78 7.70 6.10 8.31 4.78 8.30ZM11.65 13.34C12.59 13.34 13.46 12.94 13.91 12.31L14.13 13.15L15.33 13.15L15.33 9.19C15.33 7.31 14.35 6.36 12.40 6.36C11.42 6.36 10.60 6.61 9.97 7.10L10.60 8.08C11.04 7.70 11.61 7.51 12.25 7.51C13.30 7.51 13.91 8.01 13.91 8.90L13.91 9.45L13.74 9.39C10.86 8.31 9.29 9.79 9.29 11.21C9.29 12.45 10.34 13.34 11.65 13.34ZM12.07 12.25C11.24 12.25 10.78 11.72 10.78 11.11C10.78 10.34 11.67 9.57 13.72 10.30L13.91 10.35L13.91 10.54C13.91 11.62 13.04 12.25 12.07 12.25ZM20.08 11.93C19.99 11.99 19.76 12.06 19.48 12.06C19.03 12.06 18.75 11.80 18.75 11.20L18.75 7.67L20.15 7.67L20.15 6.53L18.75 6.53L18.75 4.64L17.34 4.64L17.34 6.53L16.46 6.53L16.46 7.67L17.34 7.67L17.34 11.32C17.34 12.91 18.33 13.27 19.15 13.27C19.67 13.27 20.10 13.17 20.27 13.08ZM24.54 6.36C23.76 6.36 23.23 6.74 22.85 7.41L22.68 6.53L21.45 6.53L21.45 13.15L22.87 13.15L22.87 9.70C22.87 8.62 23.44 7.66 24.47 7.66C24.70 7.66 24.92 7.70 25.11 7.79L25.54 6.58C25.36 6.47 24.98 6.36 24.54 6.36ZM27.29 5.26C27.80 5.26 28.20 4.86 28.20 4.36C28.20 3.86 27.80 3.46 27.29 3.46C26.78 3.46 26.37 3.86 26.37 4.36C26.37 4.86 26.78 5.26 27.29 5.26ZM26.60 13.15L27.99 13.15L27.99 6.53L26.60 6.53ZM33.03 13.34C33.95 13.34 34.69 13.07 35.31 12.60L34.49 11.58C34.13 11.93 33.61 12.13 33.06 12.13C31.76 12.13 30.99 11.14 30.99 9.84C30.99 8.55 31.76 7.57 33.06 7.57C33.61 7.57 34.13 7.77 34.49 8.12L35.31 7.10C34.69 6.64 33.95 6.36 33.03 6.36C30.98 6.36 29.55 7.89 29.55 9.84C29.55 11.81 30.98 13.34 33.03 13.34ZM40.92 13.15L42.74 13.15L39.68 9.13L42.35 6.53L40.54 6.53L37.81 9.17L37.81 3.24L36.40 3.24L36.40 13.15L37.81 13.15L37.81 10.94L38.70 10.08ZM53.61 3.82L46.40 3.82L46.40 5.09L49.28 5.09L49.28 13.15L50.76 13.15L50.76 5.09L53.61 5.09ZM57.74 13.34C59.82 13.34 61.26 11.81 61.26 9.84C61.26 7.89 59.82 6.36 57.74 6.36C55.62 6.36 54.18 7.89 54.18 9.84C54.18 11.81 55.62 13.34 57.74 13.34ZM57.74 12.13C56.51 12.13 55.65 11.14 55.65 9.84C55.65 8.56 56.51 7.57 57.74 7.57C58.95 7.57 59.81 8.56 59.81 9.84C59.81 11.14 58.95 12.13 57.74 12.13ZM67.10 6.53L67.10 10.57C66.98 11.74 66.19 12.12 65.45 12.12C64.43 12.12 63.99 11.39 63.99 10.31L63.99 6.53L62.58 6.53L62.58 10.63C62.58 12.69 63.90 13.33 65.06 13.33C65.99 13.33 66.70 12.95 67.10 12.37L67.27 13.15L68.51 13.15L68.51 6.53ZM73.38 13.34C74.30 13.34 75.05 13.07 75.66 12.60L74.84 11.58C74.48 11.93 73.97 12.13 73.41 12.13C72.11 12.13 71.34 11.14 71.34 9.84C71.34 8.55 72.11 7.57 73.41 7.57C73.97 7.57 74.48 7.77 74.84 8.12L75.66 7.10C75.05 6.64 74.30 6.36 73.38 6.36C71.33 6.36 69.90 7.89 69.90 9.84C69.90 11.81 71.33 13.34 73.38 13.34ZM80.22 6.36C79.27 6.36 78.58 6.75 78.17 7.32L78.17 3.24L76.75 3.24L76.75 13.15L78.17 13.15L78.17 9.42C78.17 8.02 79.03 7.57 79.83 7.57C80.85 7.57 81.29 8.30 81.29 9.38L81.29 13.15L82.70 13.15L82.70 9.06C82.70 7 81.38 6.36 80.22 6.36ZM90.68 9.70C90.68 7.73 89.35 6.36 87.43 6.36C85.43 6.36 84.01 7.89 84.01 9.84C84.01 11.80 85.41 13.31 87.59 13.31C88.74 13.31 89.70 12.92 90.30 12.25L89.32 11.46C88.90 11.94 88.33 12.19 87.57 12.19C86.33 12.19 85.60 11.33 85.50 10.15L90.68 10.15ZM87.43 7.50C88.46 7.50 89.13 8.12 89.28 9.17L85.56 9.17C85.76 8.17 86.45 7.50 87.43 7.50ZM95.14 11.93C95.05 11.99 94.82 12.06 94.54 12.06C94.09 12.06 93.81 11.80 93.81 11.20L93.81 7.67L95.21 7.67L95.21 6.53L93.81 6.53L93.81 4.64L92.40 4.64L92.40 6.53L91.52 6.53L91.52 7.67L92.40 7.67L92.40 11.32C92.40 12.91 93.39 13.27 94.21 13.27C94.73 13.27 95.16 13.17 95.33 13.08ZM99.59 11.93C99.50 11.99 99.27 12.06 98.99 12.06C98.54 12.06 98.26 11.80 98.26 11.20L98.26 7.67L99.66 7.67L99.66 6.53L98.26 6.53L98.26 4.64L96.85 4.64L96.85 6.53L95.97 6.53L95.97 7.67L96.85 7.67L96.85 11.32C96.85 12.91 97.84 13.27 98.66 13.27C99.18 13.27 99.60 13.17 99.78 13.08ZM107.26 9.70C107.26 7.73 105.93 6.36 104.01 6.36C102.01 6.36 100.60 7.89 100.60 9.84C100.60 11.80 102.00 13.31 104.17 13.31C105.32 13.31 106.28 12.92 106.88 12.25L105.90 11.46C105.48 11.94 104.91 12.19 104.15 12.19C102.91 12.19 102.19 11.33 102.08 10.15L107.26 10.15ZM104.01 7.50C105.04 7.50 105.71 8.12 105.86 9.17L102.14 9.17C102.35 8.17 103.03 7.50 104.01 7.50Z"
    ></path>
  </g>
  <defs data-v-fde0c5aa="">
    <linearGradient
      data-v-fde0c5aa=""
      gradientTransform="rotate(25)"
      id="1f0177c8-1295-409e-9c0e-c95f1bef9356"
      x1="0%"
      y1="0%"
      x2="100%"
      y2="0%"
    >
      <stop
        data-v-fde0c5aa=""
        offset="0%"
        stop-color="#288B58"
        stop-opacity="1"
      ></stop>
      <stop
        data-v-fde0c5aa=""
        offset="100%"
        stop-color="#1522F1"
        stop-opacity="1"
      ></stop>
    </linearGradient>
  </defs>
  <g
    data-v-fde0c5aa=""
    id="cac98391-2d2f-45cb-a29f-e675d3f052c2"
    stroke="none"
    fill="url(#1f0177c8-1295-409e-9c0e-c95f1bef9356)"
    transform="matrix(0.6878479994677471,0,0,0.6878479994677471,36.56076000266126,117.89892623979019)"
  >
    <path
      d="M86.004 73.229l-33.66-51.101a1.755 1.755 0 0 0-1.432-.789c-.604-.025-1.119.254-1.46.735L13.038 73.175l-1.629-1.16 36.413-51.101a3.706 3.706 0 0 1 3.131-1.575 3.744 3.744 0 0 1 3.06 1.688l33.66 51.102-1.669 1.1z"
    ></path>
    <path
      d="M41.456 40.355l-3.773-3.773 1.414-1.415 2.359 2.36 3.147-3.147 3.105 3.105 3.139-3.138 3.097 3.098 2.886-2.884 2.639 2.639 2.246-2.246 1.414 1.414-3.66 3.66-2.639-2.639-2.886 2.884-3.097-3.098-3.139 3.138-3.105-3.105zM5 72h90v2H5z"
    ></path>
  </g>
  <defs data-v-fde0c5aa="">
    <!---->
  </defs>
  <g
    data-v-fde0c5aa=""
    id="78ffd4ee-d41a-4ffd-93ce-463f3e7c6b96"
    fill="#000000"
    transform="matrix(1.094117633119479,0,0,1.094117633119479,114.446790527927,152.770853198036)"
  >
    <path
      d="M6.03 6.54L4.17 13.02L3.30 13.02L0.42 3.78L1.18 3.78L3.74 12.45L6.16 3.78L6.97 3.78L9.39 12.46L11.98 3.78L12.70 3.78L9.81 13.02L8.95 13.02L7.08 6.54L6.57 4.54L6.55 4.54L6.03 6.54ZM22.27 12.38L28.11 12.38L28.11 13.02L21.57 13.02L21.57 3.78L27.89 3.78L27.89 4.42L22.27 4.42L22.27 7.99L26.71 7.99L26.71 8.65L22.27 8.65L22.27 12.38ZM37.14 13.02L37.14 3.78L40.40 3.78L40.40 3.78Q41.92 3.78 42.66 4.41L42.66 4.41L42.66 4.41Q43.41 5.04 43.41 6.23L43.41 6.23L43.41 6.23Q43.41 7.04 42.97 7.60L42.97 7.60L42.97 7.60Q42.53 8.16 41.72 8.33L41.72 8.33L41.72 8.34L41.72 8.34Q42.62 8.48 43.14 9.07L43.14 9.07L43.14 9.07Q43.67 9.66 43.67 10.53L43.67 10.53L43.67 10.53Q43.67 11.72 42.82 12.37L42.82 12.37L42.82 12.37Q41.97 13.02 40.40 13.02L40.40 13.02L37.14 13.02ZM37.84 8.04L40.42 8.04L40.42 8.04Q42.67 8.04 42.67 6.23L42.67 6.23L42.67 6.23Q42.67 4.42 40.42 4.42L40.42 4.42L37.84 4.42L37.84 8.04ZM37.84 12.38L40.54 12.38L40.54 12.38Q41.72 12.38 42.32 11.90L42.32 11.90L42.32 11.90Q42.92 11.42 42.92 10.53L42.92 10.53L42.92 10.53Q42.92 9.62 42.32 9.15L42.32 9.15L42.32 9.15Q41.72 8.68 40.54 8.68L40.54 8.68L37.84 8.68L37.84 12.38ZM67.28 3.78L67.28 3.78Q69.50 3.78 70.69 4.95L70.69 4.95L70.69 4.95Q71.89 6.12 71.89 8.33L71.89 8.33L71.89 8.33Q71.89 10.60 70.69 11.81L70.69 11.81L70.69 11.81Q69.50 13.02 67.28 13.02L67.28 13.02L64.37 13.02L64.37 3.78L67.28 3.78ZM67.34 12.38L67.34 12.38Q69.19 12.38 70.17 11.33L70.17 11.33L70.17 11.33Q71.16 10.29 71.16 8.33L71.16 8.33L71.16 8.33Q71.16 6.45 70.17 5.44L70.17 5.44L70.17 5.44Q69.19 4.42 67.34 4.42L67.34 4.42L65.07 4.42L65.07 12.38L67.34 12.38ZM81.93 12.38L87.77 12.38L87.77 13.02L81.23 13.02L81.23 3.78L87.54 3.78L87.54 4.42L81.93 4.42L81.93 7.99L86.37 7.99L86.37 8.65L81.93 8.65L81.93 12.38ZM103.61 3.78L100.06 13.02L99.23 13.02L95.66 3.78L96.42 3.78L99.15 10.93L99.64 12.36L100.13 10.93L102.87 3.78L103.61 3.78Z"
    ></path>
  </g>
</svg>