<svg data-v-fde0c5aa="" xmlns="http://www.w3.org/2000/svg" viewBox="0 0 300 300" class="icon"><!----><defs data-v-fde0c5aa=""><!----></defs><rect data-v-fde0c5aa="" fill="transparent" x="0" y="0" width="300px" height="300px" class="logo-background-square"></rect><!----><defs data-v-fde0c5aa=""><linearGradient data-v-fde0c5aa="" gradientTransform="rotate(25)" id="19f6fef4-9b16-45e8-ab8c-59df2025d43e" x1="0%" y1="0%" x2="100%" y2="0%"><stop data-v-fde0c5aa="" offset="0%" stop-color="#288B58" stop-opacity="1"></stop><stop data-v-fde0c5aa="" offset="100%" stop-color="#1522F1" stop-opacity="1"></stop></linearGradient></defs><g data-v-fde0c5aa="" id="270567ab-5148-4d12-a275-e4c107f1dcec" fill="url(#19f6fef4-9b16-45e8-ab8c-59df2025d43e)" stroke="none" transform="matrix(2.4444444444444446,0,0,2.4444444444444446,27.777777777777764,35.92059368557399)"><path d="M86.004 73.229l-33.66-51.101a1.755 1.755 0 0 0-1.432-.789c-.604-.025-1.119.254-1.46.735L13.038 73.175l-1.629-1.16 36.413-51.101a3.706 3.706 0 0 1 3.131-1.575 3.744 3.744 0 0 1 3.06 1.688l33.66 51.102-1.669 1.1z"></path><path d="M41.456 40.355l-3.773-3.773 1.414-1.415 2.359 2.36 3.147-3.147 3.105 3.105 3.139-3.138 3.097 3.098 2.886-2.884 2.639 2.639 2.246-2.246 1.414 1.414-3.66 3.66-2.639-2.639-2.886 2.884-3.097-3.098-3.139 3.138-3.105-3.105zM5 72h90v2H5z"></path></g><!----></svg>