<svg
  data-v-423bf9ae=""
  xmlns="http://www.w3.org/2000/svg"
  viewBox="0 0 98.78837862927071 60"
  class="icon"
>
  <!---->
  <!---->
  <!---->
  <!---->
  <g
    data-v-423bf9ae=""
    id="f35e28e6-f373-460f-be16-80ff8a3c4b53"
    transform="matrix(1.0976486514363413,0,0,1.0976486514363413,-5.488243273664139,-21.225998112690597)"
    stroke="none"
    fill="black"
  >
    <path
      d="M86.004 73.229l-33.66-51.101a1.755 1.755 0 0 0-1.432-.789c-.604-.025-1.119.254-1.46.735L13.038 73.175l-1.629-1.16 36.413-51.101a3.706 3.706 0 0 1 3.131-1.575 3.744 3.744 0 0 1 3.06 1.688l33.66 51.102-1.669 1.1z"
    ></path>
    <path
      d="M41.456 40.355l-3.773-3.773 1.414-1.415 2.359 2.36 3.147-3.147 3.105 3.105 3.139-3.138 3.097 3.098 2.886-2.884 2.639 2.639 2.246-2.246 1.414 1.414-3.66 3.66-2.639-2.639-2.886 2.884-3.097-3.098-3.139 3.138-3.105-3.105zM5 72h90v2H5z"
    ></path>
  </g>
  <!---->
</svg>